<?xml version="1.0" encoding="UTF-8"?>
<svg id="Layer_1" data-name="Layer 1" xmlns="http://www.w3.org/2000/svg" viewBox="0 0 913.93 981.85">
  <defs>
    <style>
      .cls-1 {
        fill: #ddd;
      }

      .cls-2 {
        fill: #4889c8;
      }
    </style>
  </defs>
  <path class="cls-2" d="M913.93,490.92L232.81,0l172.11,490.91-172.11,490.93L913.93,490.92ZM419.11,241.65l345.84,249.26-345.84,249.26,87.39-249.26-87.39-249.26Z"/>
  <path class="cls-1" d="M681.12,490.91L0,0,172.11,490.91,0,981.84,681.12,490.91ZM186.3,241.64l345.84,249.26-345.84,249.26,87.39-249.26-87.39-249.26Z"/>
  <polygon class="cls-2" points="451.32 432.51 451.32 549.34 323.02 549.34 323.02 677.64 206.2 677.64 206.2 549.34 77.91 549.34 77.91 432.51 206.2 432.51 206.2 304.22 323.02 304.22 323.02 432.51 451.32 432.51"/>
</svg>